<svg width="138" height="44" viewBox="0 0 138 44" fill="none" xmlns="http://www.w3.org/2000/svg">
<path d="M57.808 33.32C56.8907 33.32 55.92 33.224 54.896 33.032C53.872 32.84 52.9547 32.5093 52.144 32.04C51.8027 31.8267 51.5573 31.5813 51.408 31.304C51.28 31.0053 51.2267 30.7173 51.248 30.44C51.2907 30.1413 51.3973 29.8853 51.568 29.672C51.76 29.4587 51.9947 29.32 52.272 29.256C52.5707 29.192 52.8907 29.2453 53.232 29.416C54.0853 29.8213 54.8853 30.1093 55.632 30.28C56.3787 30.4293 57.1147 30.504 57.84 30.504C58.864 30.504 59.6213 30.3333 60.112 29.992C60.624 29.6293 60.88 29.16 60.88 28.584C60.88 28.0933 60.7093 27.72 60.368 27.464C60.048 27.1867 59.5573 26.984 58.896 26.856L55.696 26.248C54.3733 25.992 53.36 25.512 52.656 24.808C51.9733 24.0827 51.632 23.1547 51.632 22.024C51.632 21 51.9093 20.1147 52.464 19.368C53.04 18.6213 53.8293 18.0453 54.832 17.64C55.8347 17.2347 56.9867 17.032 58.288 17.032C59.2267 17.032 60.1013 17.1387 60.912 17.352C61.744 17.544 62.544 17.8533 63.312 18.28C63.632 18.4507 63.8453 18.6747 63.952 18.952C64.08 19.2293 64.112 19.5173 64.048 19.816C63.984 20.0933 63.856 20.3493 63.664 20.584C63.472 20.7973 63.2267 20.936 62.928 21C62.6507 21.0427 62.3307 20.9787 61.968 20.808C61.3067 20.4667 60.6667 20.2213 60.048 20.072C59.4507 19.9227 58.8747 19.848 58.32 19.848C57.2747 19.848 56.496 20.0293 55.984 20.392C55.4933 20.7547 55.248 21.2347 55.248 21.832C55.248 22.28 55.3973 22.6533 55.696 22.952C55.9947 23.2507 56.4533 23.4533 57.072 23.56L60.272 24.168C61.6587 24.424 62.704 24.8933 63.408 25.576C64.1333 26.2587 64.496 27.176 64.496 28.328C64.496 29.8853 63.888 31.112 62.672 32.008C61.456 32.8827 59.8347 33.32 57.808 33.32ZM69.753 33.256C69.113 33.256 68.6223 33.0853 68.281 32.744C67.9397 32.3813 67.769 31.8693 67.769 31.208V19.112C67.769 18.4507 67.9397 17.9493 68.281 17.608C68.6223 17.2667 69.1023 17.096 69.721 17.096C70.3397 17.096 70.8197 17.2667 71.161 17.608C71.5023 17.9493 71.673 18.4507 71.673 19.112V21.448L71.321 20.488C71.7477 19.4213 72.409 18.5787 73.305 17.96C74.201 17.3413 75.2677 17.032 76.505 17.032C77.7637 17.032 78.7983 17.3307 79.609 17.928C80.4197 18.5253 80.985 19.4427 81.305 20.68H80.857C81.2837 19.5493 81.9877 18.664 82.969 18.024C83.9503 17.3627 85.081 17.032 86.361 17.032C87.5557 17.032 88.537 17.2667 89.305 17.736C90.0943 18.2053 90.681 18.92 91.065 19.88C91.449 20.8187 91.641 22.0133 91.641 23.464V31.208C91.641 31.8693 91.4597 32.3813 91.097 32.744C90.7557 33.0853 90.265 33.256 89.625 33.256C88.985 33.256 88.4943 33.0853 88.153 32.744C87.8117 32.3813 87.641 31.8693 87.641 31.208V23.624C87.641 22.4293 87.4383 21.5547 87.033 21C86.649 20.4453 85.9877 20.168 85.049 20.168C84.0037 20.168 83.1823 20.5413 82.585 21.288C81.9877 22.0133 81.689 23.0267 81.689 24.328V31.208C81.689 31.8693 81.5183 32.3813 81.177 32.744C80.8357 33.0853 80.345 33.256 79.705 33.256C79.065 33.256 78.5637 33.0853 78.201 32.744C77.8597 32.3813 77.689 31.8693 77.689 31.208V23.624C77.689 22.4293 77.4863 21.5547 77.081 21C76.697 20.4453 76.0463 20.168 75.129 20.168C74.0837 20.168 73.2623 20.5413 72.665 21.288C72.0677 22.0133 71.769 23.0267 71.769 24.328V31.208C71.769 32.5733 71.097 33.256 69.753 33.256ZM100.92 33.32C99.7888 33.32 98.7755 33.1067 97.8795 32.68C97.0048 32.232 96.3115 31.6347 95.7995 30.888C95.3088 30.1413 95.0635 29.2987 95.0635 28.36C95.0635 27.208 95.3622 26.3013 95.9595 25.64C96.5568 24.9573 97.5275 24.4667 98.8715 24.168C100.216 23.8693 102.018 23.72 104.28 23.72H105.88V26.024H104.312C102.989 26.024 101.933 26.088 101.144 26.216C100.354 26.344 99.7888 26.568 99.4475 26.888C99.1275 27.1867 98.9675 27.6133 98.9675 28.168C98.9675 28.872 99.2128 29.448 99.7035 29.896C100.194 30.344 100.877 30.568 101.752 30.568C102.456 30.568 103.074 30.408 103.608 30.088C104.162 29.7467 104.6 29.288 104.92 28.712C105.24 28.136 105.4 27.4747 105.4 26.728V23.048C105.4 21.9813 105.165 21.2133 104.696 20.744C104.226 20.2747 103.437 20.04 102.328 20.04C101.709 20.04 101.037 20.1147 100.312 20.264C99.6075 20.4133 98.8608 20.6693 98.0715 21.032C97.6662 21.224 97.3035 21.2773 96.9835 21.192C96.6848 21.1067 96.4502 20.936 96.2795 20.68C96.1088 20.4027 96.0235 20.104 96.0235 19.784C96.0235 19.464 96.1088 19.1547 96.2795 18.856C96.4502 18.536 96.7382 18.3013 97.1435 18.152C98.1248 17.7467 99.0635 17.4587 99.9595 17.288C100.877 17.1173 101.709 17.032 102.456 17.032C103.992 17.032 105.25 17.2667 106.232 17.736C107.234 18.2053 107.981 18.92 108.472 19.88C108.962 20.8187 109.208 22.0347 109.208 23.528V31.208C109.208 31.8693 109.048 32.3813 108.728 32.744C108.408 33.0853 107.949 33.256 107.352 33.256C106.754 33.256 106.285 33.0853 105.944 32.744C105.624 32.3813 105.464 31.8693 105.464 31.208V29.672H105.72C105.57 30.4187 105.272 31.0693 104.824 31.624C104.397 32.1573 103.853 32.5733 103.192 32.872C102.53 33.1707 101.773 33.32 100.92 33.32ZM115.316 33.256C114.654 33.256 114.142 33.0853 113.78 32.744C113.438 32.3813 113.268 31.8693 113.268 31.208V19.112C113.268 18.4507 113.438 17.9493 113.78 17.608C114.121 17.2667 114.601 17.096 115.22 17.096C115.838 17.096 116.318 17.2667 116.66 17.608C117.001 17.9493 117.172 18.4507 117.172 19.112V21.128H116.852C117.15 19.848 117.737 18.8773 118.612 18.216C119.486 17.5547 120.649 17.16 122.1 17.032C122.548 16.9893 122.9 17.1067 123.156 17.384C123.433 17.64 123.593 18.0453 123.636 18.6C123.678 19.1333 123.55 19.5707 123.252 19.912C122.974 20.232 122.548 20.424 121.972 20.488L121.268 20.552C119.966 20.68 118.985 21.0853 118.324 21.768C117.662 22.4293 117.332 23.368 117.332 24.584V31.208C117.332 31.8693 117.161 32.3813 116.82 32.744C116.478 33.0853 115.977 33.256 115.316 33.256ZM133.873 33.32C132.486 33.32 131.324 33.0853 130.385 32.616C129.468 32.1467 128.785 31.464 128.337 30.568C127.889 29.6507 127.665 28.52 127.665 27.176V20.36H126.001C125.489 20.36 125.094 20.232 124.817 19.976C124.54 19.6987 124.401 19.3253 124.401 18.856C124.401 18.3653 124.54 17.992 124.817 17.736C125.094 17.48 125.489 17.352 126.001 17.352H127.665V14.44C127.665 13.7787 127.836 13.2773 128.177 12.936C128.54 12.5947 129.041 12.424 129.681 12.424C130.321 12.424 130.812 12.5947 131.153 12.936C131.494 13.2773 131.665 13.7787 131.665 14.44V17.352H135.057C135.569 17.352 135.964 17.48 136.241 17.736C136.518 17.992 136.657 18.3653 136.657 18.856C136.657 19.3253 136.518 19.6987 136.241 19.976C135.964 20.232 135.569 20.36 135.057 20.36H131.665V26.952C131.665 27.976 131.889 28.744 132.337 29.256C132.785 29.768 133.51 30.024 134.513 30.024C134.876 30.024 135.196 29.992 135.473 29.928C135.75 29.864 135.996 29.8213 136.209 29.8C136.465 29.7787 136.678 29.864 136.849 30.056C137.02 30.2267 137.105 30.5893 137.105 31.144C137.105 31.5707 137.03 31.9547 136.881 32.296C136.753 32.616 136.508 32.84 136.145 32.968C135.868 33.0533 135.505 33.128 135.057 33.192C134.609 33.2773 134.214 33.32 133.873 33.32Z" fill="#918EDE"/>
<path d="M2 31.295C9.0209 18.3845 13.4904 15.5439 16.4179 16.056C22.3857 17.0983 22.417 32.1301 28.3284 33.1236C32.7164 33.8612 37.8567 26.4429 42.1194 18.4942" stroke="#918EDE" stroke-width="3" stroke-miterlimit="10" stroke-linecap="round"/>
</svg>
